#N canvas -11 -11 1920 956 12;
#X obj 12 33 oscparse;
#X obj 13 60 list trim;
#X obj 12 9 iemnet/udpreceive 11000;
#X text 187 10 enter OSC port;
#X obj 14 89 route message gameover;
#X text 178 89 split the message into 6 paramaters: f1 f2 f3 f4 f5
volume;
#X floatatom 12 148 5 0 0 0 - - -;
#X floatatom 70 150 5 0 0 0 - - -;
#X floatatom 129 152 5 0 0 0 - - -;
#X floatatom 194 149 5 0 0 0 - - -;
#X floatatom 254 148 5 0 0 0 - - -;
#X floatatom 337 111 5 0 10 0 - - -;
#X obj 255 213 *~;
#X msg 435 129 \; pd dsp 1;
#X obj 336 182 line~;
#X msg 335 157 \$1 500;
#X obj 196 213 *~;
#X obj 70 216 *~;
#X obj 11 214 *~;
#X obj 134 268 dac~;
#X obj 129 214 *~;
#X obj 11 175 phasor~;
#X obj 71 175 phasor~;
#X obj 129 175 phasor~;
#X obj 194 175 phasor~;
#X obj 256 175 phasor~;
#X obj 14 119 unpack f f f f f f;
#X obj 335 134 / 50;
#X connect 0 0 1 0;
#X connect 1 0 4 0;
#X connect 2 0 0 0;
#X connect 4 0 26 0;
#X connect 6 0 21 0;
#X connect 7 0 22 0;
#X connect 8 0 23 0;
#X connect 9 0 24 0;
#X connect 10 0 25 0;
#X connect 11 0 27 0;
#X connect 12 0 19 0;
#X connect 12 0 19 1;
#X connect 14 0 18 1;
#X connect 14 0 17 1;
#X connect 14 0 20 1;
#X connect 14 0 16 1;
#X connect 14 0 12 1;
#X connect 15 0 14 0;
#X connect 16 0 19 1;
#X connect 16 0 19 0;
#X connect 17 0 19 1;
#X connect 17 0 19 0;
#X connect 18 0 19 0;
#X connect 18 0 19 1;
#X connect 20 0 19 0;
#X connect 20 0 19 1;
#X connect 21 0 18 0;
#X connect 22 0 17 0;
#X connect 23 0 20 0;
#X connect 24 0 16 0;
#X connect 25 0 12 0;
#X connect 26 0 6 0;
#X connect 26 1 7 0;
#X connect 26 2 8 0;
#X connect 26 3 9 0;
#X connect 26 4 10 0;
#X connect 26 5 11 0;
#X connect 27 0 15 0;
